<?xml version="1.0" encoding="iso-8859-1"?>
<!-- Uploaded to: SVG Repo, www.svgrepo.com, Generator: SVG Repo Mixer Tools -->
<svg fill="#000000" height="800px" width="800px" version="1.1" id="Capa_1" xmlns="http://www.w3.org/2000/svg" xmlns:xlink="http://www.w3.org/1999/xlink" 
	 viewBox="0 0 463.001 463.001" xml:space="preserve">
<path d="M455.5,408h-8.974l-19.369-297H455.5c2.411,0,4.675-1.159,6.084-3.115c1.41-1.956,1.794-4.47,1.031-6.757l-16-48
	C445.595,50.066,442.729,48,439.5,48h-16.451l-0.064-0.988C422.727,43.067,419.452,40,415.5,40h-64c-4.143,0-7.5,3.358-7.5,7.5V48
	H119v-0.5c0-4.142-3.357-7.5-7.5-7.5h-64c-3.952,0-7.227,3.067-7.484,7.012L39.951,48H23.5c-3.229,0-6.095,2.066-7.115,5.128l-16,48
	c-0.763,2.287-0.379,4.801,1.031,6.757C2.826,109.841,5.089,111,7.5,111h28.343L16.474,408H7.5c-4.143,0-7.5,3.358-7.5,7.5
	s3.357,7.5,7.5,7.5h15.94c0.022,0,0.045,0,0.067,0s0.044,0,0.066,0H47.5c3.531,0,6.584-2.463,7.331-5.915L114.093,143H144v16.5
	c0,10.336,6.71,19.128,16,22.266v71.104l-30.356,37.946c-1.063,1.33-1.644,2.982-1.644,4.685v64c0,4.142,3.357,7.5,7.5,7.5h64
	c4.143,0,7.5-3.358,7.5-7.5v-64c0-1.703-0.58-3.355-1.644-4.685L175,252.869v-71.104c9.29-3.138,16-11.93,16-22.266V143h157.907
	l59.262,274.085c0.747,3.452,3.8,5.915,7.331,5.915h23.926c0.022,0,0.044,0,0.066,0s0.045,0,0.067,0h15.94
	c4.143,0,7.5-3.358,7.5-7.5S459.643,408,455.5,408z M360.795,127h52.374l13.63,209h-20.815L360.795,127z M434.095,63l11,33H426.18
	l-2.152-33H434.095z M359,55h49.474l3.717,57H359V55z M344,63v33H119V63H344z M57.016,336H36.201l13.63-209h52.374L57.016,336z
	 M104,55v57H50.809l3.717-57H104z M17.906,96l11-33h10.068l-2.152,33H17.906z M41.449,408h-9.943l3.717-57h18.55L41.449,408z
	 M167.5,267.506L183.896,288h-32.791L167.5,267.506z M143,352v-49h49v49H143z M176,159.5c0,4.687-3.813,8.5-8.5,8.5
	s-8.5-3.813-8.5-8.5V143h17V159.5z M117.336,128l1.495-6.915c0.002-0.008,0.002-0.016,0.004-0.024
	c0.045-0.213,0.078-0.43,0.104-0.649c0.005-0.042,0.015-0.083,0.019-0.124c0.027-0.259,0.042-0.521,0.042-0.788V111h225v8.5
	c0,0.266,0.015,0.529,0.042,0.788c0.004,0.042,0.014,0.083,0.019,0.124c0.027,0.219,0.059,0.436,0.104,0.649
	c0.002,0.008,0.002,0.016,0.004,0.024l1.495,6.915H117.336z M421.552,408l-12.324-57h18.55l3.717,57H421.552z"/>
</svg>